# xmcd
#
# Track frame offsets:
#	150
#	20755
#	37664
#	57626
#	74401
#	87355
#	106069
#	124140
#	140751
#	157334
#	173197
#	190192
#	209923
#	224432
#
# Disc length: 3336 seconds
#
# Revision: 2
# Processed by: cddbd v1.5.2PL0 Copyright (c) Steve Scherf et al.
# Submitted via: EasyCDDAExtractor 10.0.2.1
#
DISCID=dd0d060e
DTITLE=Various Artist - oOo
DYEAR=1900
DGENRE=Canção
TTITLE0=Marcus Viana - A Miragem
TTITLE1=Lara Fabian - Meu Grande Amor
TTITLE2=Renato Russo - Love Inthe Afternoon
TTITLE3=Miltinho Edilberto - Na Balanço do Buzão
TTITLE4=Caetano Veloso - Escândalo
TTITLE5=Zelia Duncan - Alma
TTITLE6=Nana Caymmi - Tarde Triste
TTITLE7=Lulo - Modernidade
TTITLE8=Zizi Possi - Eu Só Sei Amar Assim
TTITLE9=Zeca Pogodinho - Alto Lá
TTITLE10=Marina Lima - No Escuro
TTITLE11=Lenine - O Silêncio das Estrelas
TTITLE12=Sagrado Coração da Terra - Sob o Sol
TTITLE13=Marcus Viana - Faixa Interativa
EXTD=ID3G: 24
EXTT0=
EXTT1=
EXTT2=
EXTT3=
EXTT4=
EXTT5=
EXTT6=
EXTT7=
EXTT8=
EXTT9=
EXTT10=
EXTT11=
EXTT12=
EXTT13=
PLAYORDER=
